# xmcd
#
# Track frame offsets:
#       150
#       14100
#       24822
#       39530
#       54525
#       66315
#       76525
#       88955
#       102232
#       113627
#       121955
#       130877
#       143750
#       165998
#       180155
#       193270
#       205083
#       221980
#       245438
#       260233
#       278358
#       290815
#       303608
#
# Disc length: 4161 seconds
#
# Revision: 0
# Processed by: cddbd v1.5.1PL0 Copyright (c) Steve Scherf et al.
# Submitted via: WhereIsIt 3.66
#
DISCID=4f103f17
DTITLE=Sounds of Silence and Bridge over troubled water
DYEAR=1970
DGENRE=
TTITLE0=The Sounds of Silence
TTITLE1=Leaves that are Green
TTITLE2=Blessed
TTITLE3=Kathy's Song
TTITLE4=Somewhere they cant's find me
TTITLE5=Anji
TTITLE6=Homeward bound (Live)
TTITLE7=Richard Cory
TTITLE8=A most peculiar man
TTITLE9=April come she will
TTITLE10=We've got the Groovey thing going'
TTITLE11=I am a Rock
TTITLE12=Bridge over Troubled Water
TTITLE13=El Condor Pasa
TTITLE14=Cecilia
TTITLE15=Keep the Customer Satisfied
TTITLE16=So long, Frank Lloyd Wright
TTITLE17=The Boxer
TTITLE18=Baby Driver
TTITLE19=The Only Living Boy in New York
TTITLE20=Why Don't You Write Me
TTITLE21=Bye Bye Love
TTITLE22=Sonk for the Asking
EXTD=
EXTT0=
EXTT1=
EXTT2=
EXTT3=
EXTT4=
EXTT5=
EXTT6=
EXTT7=
EXTT8=
EXTT9=
EXTT10=
EXTT11=
EXTT12=
EXTT13=
EXTT14=
EXTT15=
EXTT16=
EXTT17=
EXTT18=
EXTT19=
EXTT20=
EXTT21=
EXTT22=
PLAYORDER=
